:SAMPLES-PER-SECOND 30
:FULLY-SPECIFIED
:DEGREES
247
root  8.79117 41.0364 6.25153 -165.165 -85.7894 168.164
RightUpLeg  -7.20389 -7.2623 -2.27635
RightLeg  32.5841 -3.83933 -2.89759
RightFoot  -2.63918 -1.25405 16.1081
RightToes  1.16414e-010 0 -3.6325e-017
Spine  13.538 -0.643189 0.849064
Spine1  -2.34698 -0.326807 -2.32852
HEad  -14.9119 10.7471 -0.250403
LeftShoulder1  -0.113403 4.18274 -9.18114
LeftArm  -33.0982 21.7447 -36.1182
LeftForeArm  -65.1717 -27.0166 -7.99128
LeftHand  0.444407 0.151091 -9.88105
RightShoulder  1.33797 1.98557 17.8631
RightArm  -0.657774 -37.1843 37.7571
RightForeArm  23.4535 49.4867 11.3689
RightHand  -0.625241 -1.54042 -18.7611
LeftUpLeg  -12.349 6.55674 7.65545
LeftLeg  29.8932 5.66548 3.84198
LeftFoot  6.56398 2.87201 -18.3152
LeftToes  7.09373e-011 9.9627e-011 8.96859e-012
248
root  8.55633 40.8422 6.85796 -136.145 -86.217 138.22
RightUpLeg  -4.98535 -9.41819 -0.312665
RightLeg  36.7727 -4.38973 -3.79064
RightFoot  -2.48443 -1.26468 16.0966
RightToes  1.16414e-010 0 -3.6325e-017
Spine  13.3634 -0.656718 0.29258
Spine1  -1.6486 -0.0255241 -4.36252
HEad  -14.4811 8.46054 1.54045
LeftShoulder1  -0.126421 4.19806 -11.1446
LeftArm  -33.8134 22.2765 -42.0995
LeftForeArm  -68.648 -27.1214 -8.02954
LeftHand  0.0452435 4.2338 -5.91648
RightShoulder  1.36304 1.93377 18.6204
RightArm  -2.26908 -40.8112 35.7006
RightForeArm  24.794 53.1337 12.9903
RightHand  -0.872799 -0.658619 -21.388
LeftUpLeg  -14.6054 6.0249 4.39473
LeftLeg  31.9128 2.91473 2.32556
LeftFoot  4.03688 2.3226 -17.2972
LeftToes  7.09373e-011 9.9627e-011 8.96859e-012
249
root  8.19343 40.2342 7.47442 -106.901 -84.8077 108.072
RightUpLeg  -2.17929 -8.99328 0.700875
RightLeg  38.9504 -7.75834 -6.94311
RightFoot  -0.538169 -1.29512 13.5598
RightToes  1.16414e-010 0 -3.6325e-017
Spine  11.9932 -0.396864 -1.02793
Spine1  0.374773 0.54497 -6.0176
HEad  -14.1426 6.47515 2.69492
LeftShoulder1  -0.0132658 3.57221 -13.9812
LeftArm  -39.3131 22.6212 -47.4642
LeftForeArm  -74.6477 -26.2901 -7.82862
LeftHand  0.0479463 9.40927 2.49999
RightShoulder  1.28705 1.50519 19.3124
RightArm  -6.71436 -43.5612 34.983
RightForeArm  24.4357 55.2166 14.1685
RightHand  -1.38958 0.455437 -26.8225
LeftUpLeg  -15.7774 4.35927 0.686753
LeftLeg  32.7726 -0.736443 -0.160069
LeftFoot  2.28898 2.14522 -17.9936
LeftToes  7.09373e-011 9.9627e-011 8.96859e-012
250
root  7.73989 39.3079 8.1518 -103.346 -83.2974 104.181
RightUpLeg  0.703226 -6.42522 2.51082
RightLeg  39.3397 -15.131 -13.099
RightFoot  -2.39386 -0.945867 11.8936
RightToes  1.16414e-010 0 -3.6325e-017
Spine  9.99686 -0.118291 -1.09511
Spine1  2.39918 1.4202 -7.94046
HEad  -13.4874 5.48271 3.33155
LeftShoulder1  0.131497 2.9154 -15.7683
LeftArm  -47.1163 23.9172 -53.2219
LeftForeArm  -82.7573 -26.1019 -7.7349
LeftHand  1.02053 13.5339 15.1262
RightShoulder  1.17273 0.929748 20.1369
RightArm  -11.7654 -44.3803 34.5706
RightForeArm  20.2 54.9235 14.3814
RightHand  -2.35932 2.02851 -36.0845
LeftUpLeg  -16.6297 2.7815 -1.83998
LeftLeg  35.4405 -2.50126 -1.53394
LeftFoot  -1.46723 1.56892 -17.7525
LeftToes  7.09373e-011 9.9627e-011 8.96859e-012
251
root  7.33124 38.3948 8.85052 -110.149 -82.5675 111.086
RightUpLeg  3.65276 -4.73517 4.153
RightLeg  38.7236 -25.0032 -20.1756
RightFoot  -9.73429 -0.238312 12.6458
RightToes  1.16414e-010 0 -3.6325e-017
Spine  8.79596 -0.0403602 0.321358
Spine1  3.00587 2.25342 -10.4951
HEad  -12.739 5.34095 4.11513
LeftShoulder1  0.111532 3.00261 -15.2004
LeftArm  -52.2593 25.9316 -58.484
LeftForeArm  -90.748 -26.5336 -7.73986
LeftHand  2.50415 15.6712 27.6429
RightShoulder  1.0964 0.589167 20.4996
RightArm  -11.0876 -42.9012 32.6879
RightForeArm  15.0854 50.5987 12.6231
RightHand  -2.75314 2.43633 -39.8089
LeftUpLeg  -16.771 2.79269 -3.39563
LeftLeg  38.6095 -2.06487 -1.37566
LeftFoot  -8.82175 0.386671 -14.3262
LeftToes  7.09373e-011 9.9627e-011 8.96859e-012
252
root  7.1106 37.8267 9.51219 -120.003 -81.5381 121.392
RightUpLeg  4.96903 -5.95084 3.22607
RightLeg  38.0258 -29.6347 -22.7614
RightFoot  -16.5124 0.463168 12.8684
RightToes  1.16414e-010 0 -3.6325e-017
Spine  8.97112 0.0861941 1.99713
Spine1  2.23501 2.9751 -13.1038
HEad  -12.5344 5.29092 4.95515
LeftShoulder1  -0.0280226 3.64254 -13.2367
LeftArm  -53.8098 27.4778 -60.0482
LeftForeArm  -93.1495 -27.3928 -7.91514
LeftHand  3.4038 16.2731 34.7626
RightShoulder  1.08202 0.679243 19.5265
RightArm  0.0090223 -39.7784 30.2811
RightForeArm  12.2912 41.7431 9.21703
RightHand  -1.49273 -0.312592 -31.357
LeftUpLeg  -16.0814 3.99667 -5.12575
LeftLeg  38.9275 -0.894316 -0.390088
LeftFoot  -15.7084 -0.352415 -11.2072
LeftToes  7.09373e-011 9.9627e-011 8.96859e-012
253
root  7.14404 37.9059 10.1514 -131.094 -79.5383 133.203
RightUpLeg  2.80173 -8.10342 0.0587236
RightLeg  39.1382 -24.1754 -19.7543
RightFoot  -16.9194 0.43675 11.1097
RightToes  1.16414e-010 0 -3.6325e-017
Spine  10.2848 0.741678 4.18811
Spine1  1.40474 4.23451 -15.7269
HEad  -13.2455 4.94234 4.75443
LeftShoulder1  -0.144315 4.28214 -11.2175
LeftArm  -55.0236 27.3703 -56.4827
LeftForeArm  -84.4 -29.6051 -8.59659
LeftHand  3.25487 15.1977 36.7047
RightShoulder  1.14821 1.22308 17.7997
RightArm  19.8722 -37.7162 28.5043
RightForeArm  14.9381 34.5984 6.82134
RightHand  -0.235772 -3.0528 -12.7507
LeftUpLeg  -14.7531 5.21386 -7.0724
LeftLeg  35.0164 0.698187 0.87617
LeftFoot  -17.2989 -0.466233 -10.9827
LeftToes  7.09373e-011 9.9627e-011 8.96859e-012
254
root  7.47753 38.5455 10.7564 -141.288 -76.8543 143.958
RightUpLeg  -3.0166 -7.33243 -2.46162
RightLeg  45.804 -15.2048 -16.3523
RightFoot  -13.5605 0.0843041 9.1785
RightToes  1.16414e-010 0 -3.6325e-017
Spine  13.0241 1.6496 7.18085
Spine1  1.17584 6.01084 -18.7863
HEad  -14.6809 4.76474 2.82876
LeftShoulder1  -0.252929 5.04686 -8.93795
LeftArm  -57.5021 25.6912 -50.139
LeftForeArm  -66.013 -34.3143 -9.98366
LeftHand  2.6572 13.2267 37.5188
RightShoulder  1.31408 2.08763 16.8949
RightArm  38.0147 -39.7135 25.1837
RightForeArm  24.6751 36.7067 6.86553
RightHand  0.227528 -1.59272 6.36568
LeftUpLeg  -13.513 6.22469 -8.54438
LeftLeg  29.5822 3.32463 2.42321
LeftFoot  -13.4018 -0.134621 -10.6133
LeftToes  7.09373e-011 9.9627e-011 8.96859e-012
255
root  8.05486 39.5941 11.166 -145.734 -75.3237 148.589
RightUpLeg  -10.4342 -5.06325 -3.26242
RightLeg  56.7931 -9.67824 -16.0524
RightFoot  -12.1548 -0.0261982 8.2004
RightToes  1.16414e-010 0 -3.6325e-017
Spine  17.0595 1.4336 9.17574
Spine1  0.905747 6.50819 -20.8882
HEad  -16.3478 5.39001 -0.15795
LeftShoulder1  -0.392271 6.39655 -5.76103
LeftArm  -59.18 24.3068 -42.9903
LeftForeArm  -45.1172 -41.555 -12.099
LeftHand  2.42105 12.2815 38.7201
RightShoulder  1.53809 2.97128 17.1706
RightArm  47.7907 -45.012 17.8855
RightForeArm  36.9724 47.0891 9.48418
RightHand  0.89555 -0.148048 20.0309
LeftUpLeg  -12.6219 7.55571 -8.88342
LeftLeg  24.1364 4.45956 2.38961
LeftFoot  -4.94614 0.510787 -8.98561
LeftToes  7.09373e-011 9.9627e-011 8.96859e-012
256
root  8.70761 40.8732 11.2421 -141.726 -76.7872 144.857
RightUpLeg  -17.6985 -4.94579 -2.7988
RightLeg  68.9085 -6.43859 -18.6637
RightFoot  -13.4038 0.0495859 7.82493
RightToes  1.16414e-010 0 -3.6325e-017
Spine  20.7684 -0.634211 8.8157
Spine1  0.0579725 4.22376 -19.4823
HEad  -17.9996 6.64848 -3.08042
LeftShoulder1  -0.473595 8.37737 -1.41302
LeftArm  -59.3162 24.6092 -34.778
LeftForeArm  -25.0772 -49.6083 -14.8481
LeftHand  2.36519 12.2097 38.3007
RightShoulder  1.73966 3.76015 17.3877
RightArm  56.3364 -50.1873 7.59074
RightForeArm  45.2906 60.3656 15.7579
RightHand  1.31405 -0.166463 28.5911
LeftUpLeg  -11.6495 8.60602 -7.34146
LeftLeg  17.3679 2.29873 -0.634488
LeftFoot  7.6148 2.32896 -13.2705
LeftToes  7.09373e-011 9.9627e-011 8.96859e-012
257
root  9.3453 41.8815 11.0678 -128.17 -79.5287 131.747
RightUpLeg  -24.6271 -6.50281 -2.1047
RightLeg  80.6421 -2.46 -19.7628
RightFoot  -14.506 0.0998406 7.16335
RightToes  1.16414e-010 0 -3.6325e-017
Spine  23.4571 -3.11735 6.61944
Spine1  -0.553069 0.671622 -15.1985
HEad  -19.6024 7.16718 -5.41246
LeftShoulder1  -0.288528 10.9099 5.08556
LeftArm  -59.6381 24.464 -27.0983
LeftForeArm  -6.79512 -56.6935 -17.9332
LeftHand  2.25907 12.3698 35.9493
RightShoulder  1.92959 4.76547 16.7215
RightArm  65.9675 -54.0223 -2.54929
RightForeArm  53.1738 71.3892 27.7841
RightHand  1.88734 1.22629 31.9925
LeftUpLeg  -11.4128 10.8125 -5.03266
LeftLeg  11.9155 -0.27679 -3.50142
LeftFoot  19.3564 7.35462 -26.8476
LeftToes  7.09373e-011 9.9627e-011 8.96859e-012
258
root  9.99348 42.3752 10.8308 -112.416 -80.352 115.525
RightUpLeg  -30.2058 -6.96828 -2.31231
RightLeg  90.183 1.01061 -17.9023
RightFoot  -14.6911 0.087466 6.38878
RightToes  1.16414e-010 0 -3.6325e-017
Spine  26.1743 -4.09588 4.24917
Spine1  0.104577 -1.04338 -12.907
HEad  -20.9019 5.23945 -6.92007
LeftShoulder1  0.410346 13.907 14.0188
LeftArm  -61.6813 18.3768 -22.843
LeftForeArm  11.3901 -62.461 -21.164
LeftHand  2.07293 12.5302 32.472
RightShoulder  2.13206 6.00524 15.6974
RightArm  73.1875 -59.1732 -9.48671
RightForeArm  68.5122 77.5251 45.5591
RightHand  3.19206 4.18042 37.0617
LeftUpLeg  -13.036 17.5077 -4.47198
LeftLeg  13.6742 -4.02612 -3.30772
LeftFoot  22.6539 11.7677 -38.0219
LeftToes  7.09373e-011 9.9627e-011 8.96859e-012
259
root  10.6516 42.6179 10.5479 -105.676 -79.2804 106.977
RightUpLeg  -33.7348 -5.74086 -3.40988
RightLeg  94.6466 2.4069 -17.365
RightFoot  -14.7567 0.0870757 6.27093
RightToes  1.16414e-010 0 -3.6325e-017
Spine  29.7576 -3.65728 3.39866
Spine1  1.51679 0.102183 -15.814
HEad  -21.4468 0.913144 -7.50077
LeftShoulder1  1.42048 16.0883 22.5137
LeftArm  -64.6402 3.26324 -19.4723
LeftForeArm  31.9398 -67.5763 -24.7424
LeftHand  1.77059 13.372 25.6938
RightShoulder  2.28061 6.70623 15.6043
RightArm  72.9912 -66.5955 -9.57495
RightForeArm  78.2387 79.2004 57.1421
RightHand  3.9291 4.21665 44.9045
LeftUpLeg  -14.9758 21.0122 -3.81849
LeftLeg  21.2971 -7.17994 -2.45983
LeftFoot  18.4972 10.2538 -37.4739
LeftToes  7.09373e-011 9.9627e-011 8.96859e-012
